<svg xmlns="http://www.w3.org/2000/svg" viewBox="0 0 204.89 134.98"><defs><style>.cls-1{opacity:0.2;}.cls-2{fill:#6198d1;}.cls-3{fill:#fff;}.cls-3,.cls-5,.cls-7,.cls-8{stroke:#6b69b0;stroke-linecap:round;stroke-linejoin:round;}.cls-4{fill:#6b69b0;}.cls-5{fill:#bcbcbc;}.cls-6{fill:#f2f2f3;}.cls-7{fill:#e8e8e8;}.cls-10,.cls-11,.cls-8{fill:none;}.cls-9{fill:#f47820;}.cls-10{stroke:#f47820;}.cls-10,.cls-11{stroke-miterlimit:10;}.cls-11{stroke:#ed2024;}</style></defs><g id="Layer_1" data-name="Layer 1"><g class="cls-1"><path class="cls-2" d="M97.41,12.6h-.49a13.13,13.13,0,0,1,2.36-.07c2.92.19,5.14-.38,6.6-1.7S108,7.18,107.47,4.6A5.49,5.49,0,0,0,104.94.77,6,6,0,0,0,102.37,0c-.46,0-.94,0-1.4,0H79.46a7.9,7.9,0,0,0-4.08.8c-2.54,1.48-2.53,4.48-2.53,5.46s0,4,2.62,5.43a7.71,7.71,0,0,0,3.77.71q3.9,0,7.82,0a1.1,1.1,0,0,1,0,.18l-19.72,0H37c-4.28,0-6.52,3.76-6.52,7.48s2.24,7.47,6.52,7.47H97.41c4.28,0,6.52-3.76,6.52-7.48S101.69,12.6,97.41,12.6Z"/><path class="cls-2" d="M67.78,41.57H33.67c-3.18,0-5.48,2.61-5.48,6.21S30.49,54,33.67,54H67.78c3.18,0,5.48-2.61,5.48-6.21S71,41.57,67.78,41.57Z"/><path class="cls-2" d="M66.82,81.93H57.31c-.85,0-1.7,0-2.55,0a11.64,11.64,0,0,0-1.18,0l-.7.05c0-.16,0-.43,0-.55a6.19,6.19,0,0,1,1.23.14,10,10,0,0,0,1.67.18c3.17,0,5.48-2.61,5.48-6.22s-2.31-6.21-5.48-6.21H5.48C2.31,69.38,0,72,0,75.6s2.31,6.21,5.48,6.21H39.91a9.72,9.72,0,0,0,1.52-.16c.28-.05.72-.09.93-.11a2.1,2.1,0,0,1,0,.51c-.64.38-3,.17-4,.07C37.67,82.06,37,82,36.46,82l-3.25,0c-1.72,0-3.43,0-5.15,0-3.17,0-5.48,2.61-5.48,6.21s2.31,6.21,5.48,6.21h7.67l-.64,1.21C34.36,96.91,34,97.13,32.73,97c-2.09-.17-4.18-.15-6.21-.13H12.69c-3.18,0-5.48,2.61-5.48,6.21s2.3,6.21,5.48,6.21H33.45c7,0,14.33,0,21.47.12h.34a10.61,10.61,0,0,0,5.3-1.17,6.11,6.11,0,0,0,3.2-5.59,6.25,6.25,0,0,0-3.92-5.18c-3-1.23-6.3-.84-9.26-.5-.91.11-1.78.21-2.58.26l-.71.06-.51,0c.25-.35.6-.77.84-1a11,11,0,0,0,1.26-1.68,3.4,3.4,0,0,1,.26-.44,5.47,5.47,0,0,1,1.71,0,13.55,13.55,0,0,0,1.43.1H66.82c3.17,0,5.48-2.61,5.48-6.21S70,81.93,66.82,81.93Z"/><path class="cls-2" d="M199.41,87.55l-.27,0c-9.38-.39-18.94-.33-28.19-.27-6,0-12.19.08-18.28,0-2.07,0-4.93,0-7.22,1.64a5.46,5.46,0,0,0-2.12,6.59,7.53,7.53,0,0,0,8,4.27l.68,0c2.59-.17,4.07-.06,4.38.31a.26.26,0,0,1,0,.13c-.82,2.38-7.42,1.75-12.26,1.28a38,38,0,0,0-8.2-.27H110.72c-3.17,0-5.48,2.61-5.48,6.21s2.31,6.21,5.5,6.21c4.41,0,8.82-.09,13.23-.14,10.18-.13,20.71-.27,31-.14h.16a2.13,2.13,0,0,1,.39,0,8.07,8.07,0,0,1-.14,2.22v0l-.77-.06c-1.41-.15-3.74-.38-5.09,1.5a7.3,7.3,0,0,0-1.06,7.19,5.45,5.45,0,0,0,4.87,3.45h24.46c3.18,0,5.48-2.62,5.48-6.22s-2.3-6.21-5.48-6.21c-1.48,0-3.13.16-4.74.31-2.27.21-7,.65-7.61-.26,0,0-.28-.52.47-2.25l.5.14a8.29,8.29,0,0,0,1.54.36,5.26,5.26,0,0,0,4.31-1.32,6.49,6.49,0,0,0,1.88-5,6,6,0,0,0-1.64-4.33,5.19,5.19,0,0,0-3.84-1.54,3.2,3.2,0,0,1-2.59-1.18,2,2,0,0,1,.68-.42c2.49-.95,8.52-.55,14.36-.17,9.31.61,18.11,1.19,21.89-2.13a5.42,5.42,0,0,0,1.86-3.76v-.11A6.37,6.37,0,0,0,199.41,87.55Z"/><path class="cls-2" d="M112.62,51.94h70.95c3.17,0,5.48-2.62,5.48-6.22s-2.31-6.21-5.48-6.21H112.62c-3.17,0-5.48,2.61-5.48,6.22S109.45,51.94,112.62,51.94Z"/></g><rect class="cls-3" x="69.86" y="41.82" width="59.11" height="66"/><path class="cls-4" d="M94.05,113a46.46,46.46,0,0,1,.85,15.15,31.64,31.64,0,0,1-.85,5.06c0,.07-.13.06-.13,0-.06-5-.06-15.17,0-20.2a.07.07,0,0,1,.13,0Z"/><path class="cls-4" d="M110.67,113a39.19,39.19,0,0,1,.85,13.86,26.25,26.25,0,0,1-.86,4.64c0,.06-.12.05-.12,0-.06-4.61-.06-13.88,0-18.48,0-.08.12-.08.13,0Z"/><polygon class="cls-5" points="128.97 33.37 128.97 39.54 120.08 36.04 128.97 33.37"/><rect class="cls-3" x="69.86" y="41.82" width="64.89" height="74.44"/><path class="cls-6" d="M72.75,36.49c0,1.11-2.89,5.33-2.89,5.33v74.44s-3.11-6.66-5.78-8.44V33.37S72.75,35.37,72.75,36.49Z"/><path class="cls-4" d="M72.8,36.49c-.45,1.9-1.92,3.87-2.86,5.33,0,6.21.19,12.41.28,18.61.06,4.64.09,14,0,18.61-.14,10.92-.35,26.44-.21,37.22a.2.2,0,0,1-.38.09c-1.56-2.93-3.13-6.19-5.78-8.27a.33.33,0,0,1-.13-.26c-.06-6.2-.15-12.41-.17-18.61-.14-17.93,0-37.81.36-55.84a.11.11,0,0,1,.14-.11c1.52.37,3,.77,4.52,1.23A16.68,16.68,0,0,1,72.42,36a.81.81,0,0,1,.38.48Zm-.1,0c-.09-.32-.52-.51-.84-.68a22.54,22.54,0,0,0-3.29-1.16c-1.49-.44-3-.82-4.52-1.17l.14-.11c.38,18.06.5,37.88.36,55.84,0,6.2-.11,12.41-.17,18.61l-.13-.25c2.74,2.22,4.23,5.53,5.79,8.61l-.39.08c.14-10.71-.07-26.33-.21-37.22,0-4.64,0-14,0-18.61.1-6.2.25-12.4.28-18.61,1-1.71,2.44-3.36,2.93-5.33Z"/><path class="cls-7" d="M134.75,41.82H69.86s2.89-4.22,2.89-5.33-8.67-3.12-8.67-3.12H129L120.08,36l8.89,3.5Z"/><line class="cls-8" x1="128.97" y1="39.54" x2="128.97" y2="33.37"/><path class="cls-4" d="M85,50.15l-.33-8.38c-.06-4.26-.68-8.65.53-12.8,2.86-11.89,13.71-16.59,24.55-11.2,11.35,6.52,7.63,21.56,7.63,32.39-.28-5.34.11-11.58-.2-17.21s-2.67-11.64-7.87-14.36a18.51,18.51,0,0,0-8.24-2c-9.62-.46-15.06,8.13-16,16.79-.06,0,.14,17.1-.12,16.77Z"/><path class="cls-4" d="M79.05,33.38c-.18-2.61-.28-5.21-.41-7.81C79.42,15.07,86.07,6.35,97.43,8c13.54,1.82,15.4,14,13.94,25.42-.12-4.91.33-10.12-1.51-14.82A14.59,14.59,0,0,0,97.32,9c-10.93-1.57-17,6.65-18.18,16.62v7.78a.05.05,0,0,1-.1,0Z"/><path class="cls-4" d="M83.71,51.14a1,1,0,1,0,1.9,0,1,1,0,1,0-1.9,0Zm-.1,0a1.5,1.5,0,0,1,3,0,1.5,1.5,0,0,1-3,0Z"/><path class="cls-4" d="M118.74,51.14a1,1,0,1,0-1.9,0,1,1,0,1,0,1.9,0Zm.1,0a1.5,1.5,0,0,1-3,0,1.5,1.5,0,0,1,3,0Z"/><path class="cls-4" d="M67.75,75.76c-.39,6.84-4.88,13.17-10.68,16.62,0,0-.11,0-.07-.08A35.18,35.18,0,0,0,67.75,75.76Z"/><path class="cls-4" d="M134.78,74.68a63.27,63.27,0,0,0,6.11,4.95,56.76,56.76,0,0,0,7,3.62c.06,0,0,.12,0,.1a19.11,19.11,0,0,1-10.59-5.49,38.11,38.11,0,0,1-2.55-3.12s0-.11.08-.06Z"/><path class="cls-4" d="M97.73,91.6c-.55-2.72,1.06-6.2,4.09-6.67,3.08-.72,6.32,1,6.51,4.37a6.35,6.35,0,0,1-.28,2.31.05.05,0,0,1-.1,0c.46-4.35-2.91-6.92-7-5.4-2.08.91-3,3.27-3.14,5.41a.05.05,0,0,1-.1,0Z"/><path class="cls-4" d="M130.79,90.93a14.12,14.12,0,0,1,0,9.78c0,.06-.1.07-.1,0-.05-2.44-.05-7.34,0-9.78,0-.06.09-.06.1,0Z"/><path class="cls-4" d="M130.79,106.27a2.06,2.06,0,0,1,0,3.33s-.09.06-.1,0c-.05-.83-.05-2.5,0-3.33,0-.07.07,0,.1,0Z"/><path class="cls-4" d="M72.74,44.77a15.94,15.94,0,0,1,10.41,0s.06.1,0,.1c-2.6.05-7.82.05-10.41,0-.06,0-.06-.09,0-.1Z"/><path class="cls-4" d="M91.39,71.49a2.25,2.25,0,1,0,0,4.5A2.25,2.25,0,0,0,91.39,71.49Z"/><path class="cls-4" d="M114.43,71.49a2.25,2.25,0,0,0,0,4.5A2.25,2.25,0,0,0,114.43,71.49Z"/><polygon class="cls-9" points="46.01 60.62 44.29 63.47 45.67 66.51 42.42 65.75 39.96 68 39.67 64.68 36.78 63.03 39.85 61.73 40.52 58.47 42.7 60.99 46.01 60.62"/><polygon class="cls-10" points="50.73 34.41 47.9 36.18 47.76 39.51 45.2 37.37 41.99 38.26 43.24 35.17 41.4 32.39 44.72 32.62 46.8 30.01 47.6 33.24 50.73 34.41"/><polygon class="cls-9" points="167.95 61.35 166.96 63.23 167.95 65.12 165.85 64.76 164.37 66.28 164.06 64.17 162.15 63.23 164.06 62.29 164.37 60.19 165.85 61.71 167.95 61.35"/><circle class="cls-11" cx="132.52" cy="24.04" r="3.23"/><circle class="cls-11" cx="148.09" cy="60.19" r="1.62"/></g></svg>