<svg xmlns="http://www.w3.org/2000/svg" viewBox="0 0 204.89 129.61"><defs><style>.cls-1{isolation:isolate;}.cls-2{opacity:0.2;}.cls-3{fill:#6198d1;}.cls-4{opacity:0.8;}.cls-5,.cls-8{fill:#775124;}.cls-6,.cls-9{fill:#6c431c;}.cls-6,.cls-7{stroke:#6b69b0;stroke-width:0.34px;}.cls-12,.cls-13,.cls-6,.cls-7{stroke-miterlimit:10;}.cls-7{fill:#c19661;}.cls-8{mix-blend-mode:multiply;opacity:0.3;}.cls-10,.cls-12,.cls-13{fill:none;}.cls-10{stroke:#000;stroke-linecap:round;stroke-linejoin:round;stroke-width:2.7px;}.cls-11{fill:#f47820;}.cls-12{stroke:#f47820;}.cls-13{stroke:#ed2024;}</style></defs><g class="cls-1"><g id="Layer_1_copy" data-name="Layer 1 copy"><g class="cls-2"><path class="cls-3" d="M107.48,14.59H108a14.13,14.13,0,0,0-2.36-.07c-2.93.19-5.14-.38-6.6-1.7S96.86,9.17,97.42,6.6A5.49,5.49,0,0,1,100,2.76,5.89,5.89,0,0,1,102.52,2c.46,0,.94-.05,1.4-.05h21.51a7.9,7.9,0,0,1,4.08.8C132.05,4.27,132,7.27,132,8.25s0,4-2.62,5.43a7.71,7.71,0,0,1-3.77.71c-2.6,0-5.21,0-7.82,0a1.1,1.1,0,0,0,0,.18l19.72,0h30.29c4.28,0,6.52,3.76,6.52,7.48s-2.24,7.47-6.52,7.47H107.48c-4.28,0-6.52-3.76-6.52-7.48S103.2,14.59,107.48,14.59Z"/><path class="cls-3" d="M137.11,43.56h34.11c3.18,0,5.48,2.62,5.48,6.22S174.4,56,171.22,56H137.11c-3.18,0-5.48-2.62-5.48-6.22S133.93,43.56,137.11,43.56Z"/><path class="cls-3" d="M138.07,83.92h9.51c.85,0,1.7,0,2.55,0a11.64,11.64,0,0,1,1.18,0l.7,0c0-.16,0-.43,0-.55a6.19,6.19,0,0,0-1.23.14,10,10,0,0,1-1.67.18c-3.17,0-5.48-2.61-5.48-6.21s2.31-6.21,5.48-6.21h50.29c3.17,0,5.48,2.61,5.48,6.21s-2.31,6.21-5.48,6.21H165a8.63,8.63,0,0,1-1.51-.16l-.93-.11a1.76,1.76,0,0,0,0,.52c.64.37,3,.16,4,.06.68-.06,1.33-.12,1.89-.12l3.25,0c1.72,0,3.43,0,5.15,0,3.17,0,5.48,2.61,5.48,6.21s-2.31,6.21-5.48,6.21h-7.67l.64,1.21c.73,1.35,1.08,1.57,2.36,1.47,2.09-.17,4.18-.15,6.21-.13H192.2c3.18,0,5.48,2.61,5.48,6.21s-2.3,6.21-5.48,6.21H171.44c-7.05,0-14.33,0-21.47.12h-.34a10.61,10.61,0,0,1-5.3-1.17,6.11,6.11,0,0,1-3.2-5.59,6.25,6.25,0,0,1,3.92-5.18c2.95-1.23,6.3-.84,9.26-.5.91.11,1.77.21,2.58.26l.71.07.51,0c-.25-.35-.61-.77-.84-1A10.53,10.53,0,0,1,156,96.66a3.4,3.4,0,0,0-.26-.44,5.47,5.47,0,0,0-1.71,0,13.55,13.55,0,0,1-1.43.1H138.07c-3.17,0-5.48-2.61-5.48-6.21S134.9,83.92,138.07,83.92Z"/><path class="cls-3" d="M5.48,89.54l.27,0c9.38-.39,18.94-.33,28.19-.27,6,0,12.19.08,18.28,0,2.06,0,4.93,0,7.22,1.63a5.47,5.47,0,0,1,2.12,6.6,7.56,7.56,0,0,1-8,4.27l-.68,0c-2.59-.17-4.07-.07-4.38.3a.32.32,0,0,0,0,.13c.82,2.39,7.42,1.75,12.26,1.28a38,38,0,0,1,8.2-.27H94.17c3.17,0,5.48,2.62,5.48,6.22s-2.31,6.21-5.5,6.21c-4.41,0-8.82-.1-13.23-.15-10.18-.13-20.71-.27-31-.14h-.16a2.13,2.13,0,0,0-.39,0,8,8,0,0,0,.14,2.22v0l.77-.06c1.41-.14,3.74-.38,5.09,1.5a7.3,7.3,0,0,1,1.06,7.19,5.43,5.43,0,0,1-4.87,3.45H27.07c-3.18,0-5.48-2.62-5.48-6.22s2.3-6.21,5.48-6.21c1.48,0,3.13.16,4.73.31,2.28.21,7,.65,7.62-.26,0,0,.28-.52-.47-2.25l-.5.15a8.31,8.31,0,0,1-1.54.35,5.28,5.28,0,0,1-4.31-1.31,6.53,6.53,0,0,1-1.88-5,6,6,0,0,1,1.64-4.33,5.22,5.22,0,0,1,3.84-1.54,3.2,3.2,0,0,0,2.59-1.18,2,2,0,0,0-.68-.42c-2.49-1-8.52-.55-14.36-.17-9.32.62-18.11,1.19-21.89-2.13A5.38,5.38,0,0,1,0,95.64v-.1A6.37,6.37,0,0,1,5.48,89.54Z"/><path class="cls-3" d="M92.27,53.93H21.32c-3.17,0-5.48-2.62-5.48-6.22s2.31-6.21,5.48-6.21H92.27c3.17,0,5.48,2.62,5.48,6.22S95.44,53.93,92.27,53.93Z"/></g><g class="cls-4"><polygon class="cls-5" points="103.44 41.82 103.91 92.15 55.69 57.67 103.44 41.82"/><polygon class="cls-6" points="143.71 62.94 142.65 105.17 95.29 123.19 95.33 78.74 143.71 62.94"/><polygon class="cls-7" points="95.51 78.6 95.29 123.19 56.07 101.17 55.85 57.83 95.51 78.6"/><polygon class="cls-8" points="95.33 123.19 63.77 62.26 95.56 78.74 95.33 123.19"/><polygon class="cls-5" points="103.4 41.87 143.06 61.4 116.78 71.08 103.4 41.87"/><polygon class="cls-9" points="103.4 41.87 103.58 75.71 116.78 71.08 103.4 41.87"/><polygon class="cls-7" points="143.26 61.36 95.51 78.6 55.85 57.83 30.8 66.69 69.88 87.16 95.67 78.56 117.12 89.05 163.95 72.47 143.26 61.36"/><polygon class="cls-7" points="103.28 41.83 143.12 61.29 169.37 52.54 128.98 32.81 103.4 41.87 81.88 30.59 33.3 46.79 55.65 57.71 103.28 41.83"/><path d="M116.72,107.06c-.56-2.65.75-6.3,3.83-6.66a4.87,4.87,0,0,1,5.52,5.07.06.06,0,0,1-.11,0,7.53,7.53,0,0,0-1.91-3,4,4,0,0,0-6.1,1.17,10,10,0,0,0-1.12,3.43c0,.07-.12.06-.11,0Z"/><path d="M113.4,92.65c-2.61,0-2.61,4,0,4S116,92.65,113.4,92.65Z"/><path d="M125.63,89.51c-2.61,0-2.61,4,0,4S128.24,89.51,125.63,89.51Z"/></g><line class="cls-10" x1="56.51" y1="26.97" x2="60.56" y2="34.63"/><line class="cls-10" x1="46.3" y1="38.53" x2="57.41" y2="43.19"/><line class="cls-10" x1="145.23" y1="22.62" x2="139.8" y2="27.34"/><line class="cls-10" x1="134.74" y1="15.11" x2="131.72" y2="23.11"/><line class="cls-10" x1="118.49" y1="13.54" x2="122.63" y2="22.26"/><polygon class="cls-11" points="45.37 55.25 43.65 58.1 45.03 61.14 41.78 60.38 39.32 62.63 39.03 59.31 36.14 57.66 39.21 56.36 39.88 53.1 42.06 55.62 45.37 55.25"/><polygon class="cls-12" points="50.09 29.04 47.26 30.81 47.11 34.14 44.56 32 41.35 32.89 42.59 29.8 40.76 27.02 44.08 27.25 46.16 24.64 46.96 27.87 50.09 29.04"/><polygon class="cls-11" points="167.31 55.98 166.32 57.86 167.31 59.74 165.21 59.38 163.73 60.91 163.42 58.8 161.51 57.86 163.42 56.92 163.73 54.82 165.21 56.34 167.31 55.98"/><circle class="cls-13" cx="152.31" cy="31.09" r="3.23"/><circle class="cls-13" cx="169.37" cy="71.08" r="1.62"/></g></g></svg>