<?xml version="1.0" encoding="utf-8"?>
<!-- Generator: Adobe Illustrator 26.0.3, SVG Export Plug-In . SVG Version: 6.00 Build 0)  -->
<svg version="1.1" id="Layer_1" xmlns="http://www.w3.org/2000/svg" xmlns:xlink="http://www.w3.org/1999/xlink" x="0px" y="0px"
	 viewBox="0 0 30.5 28.5" style="enable-background:new 0 0 30.5 28.5;" xml:space="preserve">
<style type="text/css">
	.st0{fill:#FFFFFF;}
	.st1{fill:#FF0000;}
</style>
<path class="st0" d="M26,28.4H4.5c-2.5,0-4.5-2-4.5-4.5V4.5C0,2,2,0,4.5,0H26c2.5,0,4.5,2,4.5,4.5v19.4C30.5,26.4,28.5,28.4,26,28.4
	z"/>
<g id="Demac-2">
	<path d="M12.1,7.5l0.2-0.7c1.4-0.2,2.9-0.4,4.3-0.8c-0.5,1.4-0.9,2.7-1.3,4.2l-1.1,4.6c-0.8,3.4-1.7,5.9-2.7,7.6
		c0.8,0.2,1.7,0.3,2.5,0.3c1.8,0.1,3.5-0.4,5.1-1.2c1.4-0.8,2.7-2.1,3.4-3.6c0.8-1.6,1.3-3.4,1.3-5.2c0-2.4-0.7-4.5-2.1-5.9
		c-1.4-1.4-3.4-2.3-5.6-2.3c-1.9,0-3.9,0.5-5.6,1.4c-1.7,0.8-3,2.1-4.1,3.7c-0.9,1.3-1.4,2.9-1.5,4.5c-0.1,1.2,0.6,2.5,1.8,3
		c0.2,0.2,0.5,0.3,0.7,0.5c0.1,0.2,0.2,0.4,0.2,0.5c0,0.3-0.1,0.5-0.3,0.7c-0.2,0.2-0.5,0.3-0.7,0.3c-0.6,0-1.1-0.4-1.8-1.1
		c-0.7-1-1.1-2.1-1.1-3.4c0-2,0.6-3.9,1.7-5.6C6.5,7.4,8.1,6,10,5c2.1-1.1,4.4-1.6,6.8-1.6c3,0,5.5,0.8,7.3,2.4
		c1.8,1.5,2.7,3.8,2.7,6.2c0,2.3-0.7,4.4-1.9,6.3c-1.1,1.8-2.7,3.2-4.6,4.1c-1.7,0.8-3.5,1.2-5.3,1.2c-0.6,0-1.6-0.1-3-0.2
		c-1.2-0.1-2.4-0.2-3.4-0.2c-0.5,0-1.3,0-2.3,0.1l0.4-0.8c0.6,0,1.3-0.1,1.9-0.3c0.3,0,0.5-0.2,0.7-0.5c0.5-1.1,1-2.2,1.3-3.4
		l1.1-4.3l1.3-5.4c0.1-0.2,0.1-0.5,0.1-0.7c0-0.2-0.1-0.3-0.2-0.5c-0.2-0.1-0.3-0.2-0.5-0.2C12.4,7.4,12.2,7.4,12.1,7.5z"/>
</g>
<g id="underline">
	<path class="st1" d="M26.9,20c-0.4-0.2-0.8-0.3-1.2-0.4s-0.8-0.1-1.2-0.1c-0.8,0-1.6,0-2.4,0.1c-1.6,0.2-3.3,0.4-4.9,0.8
		s-3.3,1-4.9,1.7c-1.6,0.8-3.3,1.6-4.9,3l0,0l0,0v-0.1c1.6-1.4,3.2-2.5,4.9-3.4s3.3-1.4,4.9-2s3.3-0.9,4.9-1c0.8,0,1.6,0,2.4,0.2
		c0.4,0.1,0.8,0.2,1.2,0.3C26,19.4,26.4,19.7,26.9,20L26.9,20L26.9,20L26.9,20z"/>
</g>
</svg>
