<svg id="Layer_1" data-name="Layer 1" xmlns="http://www.w3.org/2000/svg" viewBox="0 0 441 228"><defs><style>.cls-1{fill:#848484;}</style></defs><path class="cls-1" d="M532.05,211c1-.48,1.06-.95.66-1.94-1.83-4.63-3.48-9.34-5.39-13.94a2.47,2.47,0,0,1,.57-3q5.73-6.47,11.33-13a2.37,2.37,0,0,1,2.74-.81c4.59,1.16,9.23,2.14,13.81,3.33,1.57.41,2.26.2,2.81-1.49q3.76-11.78,7.86-23.45c.57-1.64.24-2.25-1.29-2.89-4.45-1.85-8.82-3.9-13.24-5.81-.9-.39-1.41-.77-1.47-1.88q-.51-9-1.21-18a1.93,1.93,0,0,1,1.11-2.15c4.33-2.63,8.57-5.4,12.91-8,1.09-.65,1.1-1.18.6-2.16Q558,104.18,552.28,92.52c-.47-1-.89-1.07-1.87-.69-4.49,1.77-9.06,3.33-13.49,5.2-1.53.65-2.47.64-3.71-.48-4.15-3.75-8.34-7.46-12.65-11a2.78,2.78,0,0,1-1-3.33c1.15-4.6,2.19-9.22,3.32-13.82.29-1.17.25-1.8-1.17-2.26q-12.14-3.9-24.16-8.1c-1.54-.53-1.93,0-2.47,1.24-1.88,4.44-3.94,8.8-5.82,13.23a2.22,2.22,0,0,1-2.13,1.63c-6,.38-12,.85-18,1.23-.57,0-1.22.22-1.7-.59-2.94-4.92-6-9.79-8.95-14.68L432.54,73c2,5.26,4.08,10.53,6.19,15.77.43,1-.19,1.53-.71,2.12-3.82,4.41-7.7,8.79-11.48,13.24a2.32,2.32,0,0,1-2.72.93c-4.68-1.18-9.39-2.2-14.06-3.37-1.35-.34-2-.2-2.46,1.31q-3.87,12-8,23.92c-.57,1.64,0,2.09,1.32,2.66,4.29,1.8,8.49,3.8,12.79,5.58a2.84,2.84,0,0,1,1.95,2.95q.45,8.37,1.15,16.73a2.56,2.56,0,0,1-1.51,2.9c-4.23,2.47-8.31,5.2-12.49,7.74-.9.55-1.07.95-.59,1.91q5.91,11.72,11.69,23.48c.49,1,.91,1,1.9.65,4.71-1.88,9.48-3.59,14.18-5.49a2,2,0,0,1,2.38.39q6.68,5.86,13.4,11.67a2.18,2.18,0,0,1,.84,2.54c-1.2,4.75-2.21,9.55-3.41,14.3-.33,1.29-.24,1.85,1.16,2.3,8.08,2.63,16.14,5.31,24.15,8.12,1.57.55,2-.05,2.47-1.22,1.87-4.35,3.82-8.67,5.68-13a2.69,2.69,0,0,1,2.67-1.91c5.67-.29,11.33-.72,17-1.18a2.65,2.65,0,0,1,2.94,1.55c2.46,4.23,5.18,8.32,7.75,12.49.5.82.85,1.22,1.9.69Q520.27,216.83,532.05,211Zm-82.28-53a36.92,36.92,0,1,1,49.62,16.61A37.14,37.14,0,0,1,449.77,158.08Z"/><path class="cls-1" d="M91.05,211c1-.48,1.06-.95.66-1.94-1.83-4.63-3.48-9.34-5.39-13.94a2.47,2.47,0,0,1,.57-3q5.73-6.47,11.33-13a2.37,2.37,0,0,1,2.74-.81c4.59,1.16,9.23,2.14,13.81,3.33,1.57.41,2.26.2,2.81-1.49q3.77-11.78,7.86-23.45c.57-1.64.24-2.25-1.29-2.89-4.45-1.85-8.82-3.9-13.24-5.81-.9-.39-1.41-.77-1.47-1.88q-.51-9-1.21-18a1.93,1.93,0,0,1,1.11-2.15c4.33-2.63,8.57-5.4,12.91-8,1.09-.65,1.1-1.18.6-2.16Q117,104.18,111.28,92.52c-.47-1-.89-1.07-1.87-.69-4.49,1.77-9.06,3.33-13.49,5.2-1.53.65-2.47.64-3.71-.48-4.15-3.75-8.34-7.46-12.65-11a2.78,2.78,0,0,1-1-3.33c1.15-4.6,2.19-9.22,3.32-13.82.29-1.17.25-1.8-1.17-2.26Q68.55,62.21,56.53,58c-1.54-.53-1.93,0-2.47,1.24-1.88,4.44-3.94,8.8-5.82,13.23a2.22,2.22,0,0,1-2.13,1.63c-6,.38-12,.85-18,1.23-.57,0-1.22.22-1.7-.59-2.94-4.92-6-9.79-9-14.68L-8.46,73c2.05,5.26,4.08,10.53,6.19,15.77.43,1-.19,1.53-.71,2.12-3.82,4.41-7.7,8.79-11.48,13.24a2.32,2.32,0,0,1-2.72.93c-4.68-1.18-9.39-2.2-14.06-3.37-1.35-.34-2-.2-2.46,1.31q-3.87,12-8,23.92c-.57,1.64,0,2.09,1.32,2.66,4.29,1.8,8.49,3.8,12.79,5.58a2.84,2.84,0,0,1,1.95,2.95q.45,8.37,1.15,16.73a2.56,2.56,0,0,1-1.51,2.9c-4.23,2.47-8.31,5.2-12.49,7.74-.9.55-1.07.95-.59,1.91q5.91,11.72,11.69,23.48c.49,1,.91,1,1.9.65,4.71-1.88,9.48-3.59,14.18-5.49a2,2,0,0,1,2.38.39q6.68,5.86,13.4,11.67a2.18,2.18,0,0,1,.84,2.54c-1.2,4.75-2.21,9.55-3.41,14.3-.33,1.29-.24,1.85,1.16,2.3,8.08,2.63,16.14,5.31,24.15,8.12,1.57.55,2-.05,2.47-1.22,1.87-4.35,3.82-8.67,5.68-13A2.69,2.69,0,0,1,38,209.19c5.67-.29,11.33-.72,17-1.18a2.65,2.65,0,0,1,2.94,1.55c2.46,4.23,5.18,8.32,7.75,12.49.5.82.85,1.22,1.9.69Q79.27,216.83,91.05,211Zm-82.28-53A36.92,36.92,0,0,1,74.9,125.22,36.92,36.92,0,1,1,8.77,158.08Z"/><path class="cls-1" d="M148.67,109.5c.1-3.07.15-6.15.11-9.22a3.63,3.63,0,0,1,2.1-3.61c4.18-2.23,8.28-4.59,12.4-6.92a4,4,0,0,1,4.45.12c2.82,1.75,5.69,3.44,8.58,5.08,2.24,1.26,2.69,1.17,4-1,3.18-5.27,6.24-10.61,9.44-15.86,1-1.73.8-2.85-.95-3.86-3-1.69-5.86-3.47-8.81-5.19a3.41,3.41,0,0,1-2.07-3.12c0-5.15.2-10.3.25-15.45a2.74,2.74,0,0,1,1.49-2.68c2.83-1.39,5.45-3.17,8.28-4.57a6.1,6.1,0,0,0,3-2.48l-.19-.46c-.48-.06-.66-.45-.85-.81-3.07-5.6-6.15-11.2-9.19-16.81-.7-1.29-1.35-1.82-2.88-.88-3.11,1.89-6.45,3.43-9.53,5.37a3,3,0,0,1-3.79.11c-4.43-2.76-8.89-5.48-13.44-8a2.91,2.91,0,0,1-1.77-3.1c.16-3.78.06-7.57.22-11.35.06-1.52-.37-1.93-1.91-1.93-6.49,0-13-.16-19.49-.3-1.17,0-1.66.25-1.65,1.55,0,3.62-.38,7.26,0,10.84.23,2.46-.94,3.46-2.68,4.4C119.4,21.73,115,24,110.7,26.54a2.79,2.79,0,0,1-3.36,0c-3-1.89-6.15-3.62-9.13-5.57-1.63-1.07-2.52-1-3.56.82C91.57,27.24,88.33,32.65,85,38c-.69,1.13-.68,1.52.51,2.19,3.46,1.94,6.82,4.08,10.27,6.07A2.61,2.61,0,0,1,97.34,49c-.16,5.34-.22,10.69-.23,16a3,3,0,0,1-1.89,3c-3.55,1.79-6.94,3.9-10.43,5.81-.87.47-1,.81-.53,1.68q5.05,8.86,10,17.78c.58,1.06,1,.92,1.91.4,3.59-2.07,7.26-4,10.86-6.07a1.83,1.83,0,0,1,2.21,0c4.81,2.94,9.65,5.85,14.54,8.65A2.69,2.69,0,0,1,125.28,99c-.11,3.71-.08,7.41-.26,11.11-.09,1.75.36,2.35,2.24,2.36,6.31,0,12.63-.14,18.94.38l1.85-.76A3.87,3.87,0,0,0,148.67,109.5ZM117,66a21.92,21.92,0,1,1,28.62,12A22.11,22.11,0,0,1,117,66Z"/><path class="cls-1" d="M423.66,101.22Q425.61,92,428,82.81c.4-1.59.15-2.27-1.46-2.61-3.57-.75-7.11-1.66-10.68-2.39a3.26,3.26,0,0,1-2.91-2.54Q410.77,67.6,408.32,60a2.84,2.84,0,0,1,.84-3.25c2.69-2.78,5.25-5.69,8-8.43.93-.94,1-1.44,0-2.33-4.85-4.44-9.68-8.92-14.44-13.46-1-.93-1.45-.91-2.34.09-2.57,2.9-5.25,5.69-7.93,8.48-.65.68-1.19,1.58-2.48,1.26-5.56-1.35-11.14-2.63-16.71-4a2.34,2.34,0,0,1-1.94-1.9c-1-3.85-2.35-7.61-3.37-11.46-.38-1.41-.89-1.58-2.17-1.17-6.25,2-12.51,3.91-18.81,5.69-1.57.44-1.42,1.12-1.06,2.25,1.17,3.72,2.22,7.48,3.46,11.17a2.57,2.57,0,0,1-.71,3c-3.73,3.84-7.46,7.69-11,11.68a3,3,0,0,1-3.44,1c-3.3-.82-6.6-1.67-9.9-2.47-1.69-.41-3.59-1.07-3.33,1.57-1.51,6.31-2.92,12.29-4.39,18.25-.35,1.42.07,2.09,1.54,2.39,3.56.76,7.09,1.69,10.66,2.45,1.39.29,2.38.65,2.82,2.26,1.47,5.27,3.09,10.51,4.74,15.73a2.4,2.4,0,0,1-.7,2.79c-2.78,2.81-5.42,5.75-8.19,8.57-1,1-.84,1.57.12,2.45,4.78,4.4,9.56,8.82,14.24,13.35,1.09,1,1.63.93,2.55-.09,2.66-2.92,5.44-5.73,8.1-8.65a2.19,2.19,0,0,1,2.33-1q8.34,2,16.71,3.93a2.13,2.13,0,0,1,1.76,1.76c1.11,4,2.41,7.94,3.54,11.93.3,1.06.63,1.24,1.69.91,6.33-2,12.69-3.87,19.05-5.76,1.28-.38,1.63-.88,1.16-2.28-1.26-3.77-2.22-7.65-3.48-11.42a2.24,2.24,0,0,1,.6-2.59c3.56-3.76,7.25-7.42,10.61-11.36,1.55-1.82,3-1.8,5-1.26,3.36.91,6.78,1.61,10.16,2.43C422.84,103,423.35,102.7,423.66,101.22Zm-58.88-1.4A21.81,21.81,0,1,1,392.85,87,21.9,21.9,0,0,1,364.78,99.82Z"/><path class="cls-1" d="M244.71,153c1,.3,1.24-.11,1.56-.91,1.6-4.07,3.35-8.08,4.84-12.19a2.36,2.36,0,0,1,2.34-1.81c5-.49,10.08-1,15.1-1.63a2.39,2.39,0,0,1,2.65,1.25c2.32,3.54,4.71,7,7,10.55.62.95,1.06,1.41,2.35.69,6.6-3.73,13.26-7.35,19.94-10.92,1.17-.62,1.15-1.12.66-2.21-1.8-4-3.44-8-5.24-12a1.94,1.94,0,0,1,.34-2.36c3.34-4.09,6.65-8.22,9.94-12.35a1.77,1.77,0,0,1,2-.72c4.42.93,8.88,1.68,13.31,2.6.93.19,1.29.07,1.56-.87q3.25-11.23,6.59-22.46c.28-.92.06-1.24-.81-1.58-4.08-1.59-8.09-3.34-12.2-4.85a2.29,2.29,0,0,1-1.78-2.31c-.45-5-1-9.93-1.61-14.88a2.53,2.53,0,0,1,1.25-2.89c3.5-2.24,6.88-4.65,10.36-6.91,1.09-.71,1.5-1.2.74-2.54q-5.54-9.81-10.8-19.76c-.66-1.25-1.24-1.27-2.37-.77-3.92,1.77-7.9,3.41-11.82,5.18a2.1,2.1,0,0,1-2.54-.39c-4-3.32-8.11-6.56-12.16-9.83-.55-.44-1.17-.77-1-1.76,1-4.93,2-9.88,3-14.82L263.17,2.2c-1.86,4.77-3.75,9.52-5.55,14.3-.3.79-.9.73-1.41.79-5.32.6-10.65,1.13-16,1.73a2,2,0,0,1-2.12-1.09c-2.35-3.6-4.85-7.11-7.19-10.71-.68-1-1.1-1.41-2.36-.7q-9.92,5.58-20,10.9c-1.18.63-1.11,1.19-.67,2.17,1.71,3.87,3.35,7.76,5.08,11.62a2.5,2.5,0,0,1-.37,3.09c-3.23,3.81-6.33,7.72-9.38,11.67a2.65,2.65,0,0,1-3.19,1c-4.19-1-8.44-1.6-12.66-2.45-.93-.19-1.27,0-1.54.9q-3.19,11.15-6.51,22.25c-.28.94-.19,1.4.86,1.8,4.23,1.61,8.39,3.39,12.61,5a1.73,1.73,0,0,1,1.31,1.72q.8,8,1.75,16a1.71,1.71,0,0,1-1,1.89c-3.59,2.37-7.1,4.86-10.72,7.18-1.25.8-1.44,1.39-.68,2.74q5.42,9.62,10.59,19.37c.74,1.4,1.38,1.47,2.69.87,3.84-1.77,7.77-3.35,11.62-5.1a2.11,2.11,0,0,1,2.52.28q6,4.89,12,9.69a2.18,2.18,0,0,1,1,2.57c-1,4.34-1.66,8.74-2.55,13.09-.18.94,0,1.34.9,1.6Q233.49,149.62,244.71,153Zm.52-43.65a33,33,0,1,1,41-22.38A33.14,33.14,0,0,1,245.23,109.31Z"/></svg>