<?xml version="1.0" encoding="utf-8"?>
<!-- Generator: Adobe Illustrator 26.0.3, SVG Export Plug-In . SVG Version: 6.00 Build 0)  -->
<svg version="1.1" id="Layer_1" xmlns="http://www.w3.org/2000/svg" xmlns:xlink="http://www.w3.org/1999/xlink" x="0px" y="0px"
	 viewBox="0 0 353.2 353.2" style="enable-background:new 0 0 353.2 353.2;" xml:space="preserve">
<style type="text/css">
	.st0{fill:none;stroke:#A7A9AC;stroke-width:15.8157;stroke-linecap:round;stroke-linejoin:round;}
	.st1{fill:#A7A9AC;}
</style>
<line class="st0" x1="51.4" y1="51.8" x2="301.8" y2="301.4"/>
<path class="st1" d="M146.5,167.2c-10.3-5.6-17.7-9.7-17.7-9.7l-45.7,54.5v-108L67.3,88.3v189.4c0,4.4,3.5,7.9,7.9,7.9h190
	L146.5,167.2z"/>
<path class="st1" d="M103.9,83.4h166.2v124.7c-7.6-11.9-19.3-27.4-28.6-27.4c-13.1,0-19.9,8.7-26.4,13.6l70.9,70.6V75.5
	c0-4.4-3.5-7.9-7.9-7.9H88L103.9,83.4z"/>
<ellipse class="st1" cx="215.7" cy="129.4" rx="28.3" ry="28.2"/>
</svg>
