<?xml version="1.0" encoding="utf-8"?>
<!-- Generator: Adobe Illustrator 26.0.3, SVG Export Plug-In . SVG Version: 6.00 Build 0)  -->
<svg version="1.1" id="Layer_1"
    xmlns="http://www.w3.org/2000/svg"
    xmlns:xlink="http://www.w3.org/1999/xlink" x="0px" y="0px" viewBox="0 0 1000 577.22" xml:space="preserve">
    <style type="text/css">
	.st0{fill:#F8F5F8;}
	.st1{fill:#C1C8D5;}
	.st2{fill:#485D75;}
	.st3{fill:#9CAABA;}
	.st4{fill:#DCE4F0;}
    </style>
    <polygon class="st0" points="83.4,48.1 0,96.2 0,96.2 83.4,144.3 "/>
    <polygon class="st1" points="0,0 0,96.2 83.4,48.1 "/>
    <polygon class="st0" points="83.4,144.3 0,192.5 0,192.5 83.4,240.6 "/>
    <polygon class="st0" points="0,96.2 0,192.5 83.4,144.3 "/>
    <polygon class="st2" points="83.4,240.6 0,288.7 0,288.7 83.4,336.8 "/>
    <polygon class="st2" points="0,192.5 0,288.7 83.4,240.6 "/>
    <polygon class="st1" points="83.4,336.8 0,384.9 0,384.9 83.4,433 "/>
    <polygon class="st0" points="0,288.7 0,384.9 83.4,336.8 "/>
    <polygon class="st1" points="83.4,433 0,481.1 0,481.1 83.4,529.2 "/>
    <polygon class="st3" points="0,384.9 0,481.1 83.4,433 "/>
    <polygon class="st4" points="0,481.1 0,577.3 83.4,529.2 "/>
    <polygon class="st1" points="0,0 83.4,48.1 83.4,0 0,0 "/>
    <polygon class="st2" points="83.4,0 83.4,48.1 166.7,0 "/>
    <polygon class="st3" points="250,144.3 250,48.1 166.7,96.2 "/>
    <polygon class="st1" points="83.4,48.1 83.4,144.3 166.7,96.2 "/>
    <polygon class="st1" points="250,48.1 166.7,0 166.7,96.2 "/>
    <polygon class="st4" points="166.7,96.2 166.7,0 83.4,48.1 "/>
    <polygon class="st4" points="83.4,144.3 83.4,240.6 166.7,192.5 "/>
    <polygon class="st4" points="250,240.6 250,144.3 166.7,192.5 "/>
    <polygon class="st4" points="166.7,192.5 250,144.3 166.7,96.2 "/>
    <polygon class="st1" points="166.7,96.2 83.4,144.3 166.7,192.5 "/>
    <polygon class="st0" points="83.4,240.6 83.4,336.8 166.7,288.7 "/>
    <polygon class="st3" points="250,336.8 250,240.6 166.7,288.7 "/>
    <polygon class="st1" points="166.7,192.5 83.4,240.6 166.7,288.7 "/>
    <polygon class="st2" points="166.7,288.7 250,240.6 166.7,192.5 "/>
    <polygon class="st2" points="250,433 250,336.8 166.7,384.9 "/>
    <polygon class="st4" points="83.4,336.8 83.4,433 166.7,384.9 "/>
    <polygon class="st2" points="166.7,288.7 83.4,336.8 166.7,384.9 "/>
    <polygon class="st1" points="166.7,384.9 250,336.8 166.7,288.7 "/>
    <polygon class="st4" points="250,529.2 250,433 166.7,481.1 "/>
    <polygon class="st3" points="83.4,433 83.4,529.2 166.7,481.1 "/>
    <polygon class="st4" points="166.7,481.1 250,433 166.7,384.9 "/>
    <polygon class="st3" points="166.7,384.9 83.4,433 166.7,481.1 "/>
    <polygon class="st1" points="166.7,577.3 250,529.2 166.7,481.1 "/>
    <polygon class="st4" points="166.7,481.1 83.4,529.2 166.7,577.3 "/>
    <polygon class="st1" points="0,577.3 83.4,577.3 83.4,529.2 0,577.3 "/>
    <polygon class="st2" points="83.4,529.2 83.4,577.3 166.7,577.3 166.7,577.3 "/>
    <polygon class="st1" points="250,48.1 250,0 166.7,0 "/>
    <polygon class="st1" points="250,0 250,48.1 333.3,0 "/>
    <polygon class="st3" points="250,48.1 250,144.3 333.3,96.2 "/>
    <polygon class="st3" points="416.7,144.3 416.7,48.1 333.3,96.2 "/>
    <polygon class="st1" points="333.3,96.2 333.3,0 250,48.1 "/>
    <polygon class="st2" points="416.7,48.1 333.3,0 333.3,96.2 "/>
    <polygon class="st3" points="416.7,240.6 416.7,144.3 333.3,192.5 "/>
    <polygon class="st1" points="250,144.3 250,240.6 333.3,192.5 "/>
    <polygon class="st3" points="333.3,96.2 250,144.3 333.3,192.5 "/>
    <polygon class="st1" points="333.3,192.5 416.7,144.3 333.3,96.2 "/>
    <polygon class="st4" points="250,240.6 250,336.8 333.3,288.7 "/>
    <polygon class="st1" points="416.7,336.8 416.7,240.6 333.3,288.7 "/>
    <polygon class="st3" points="333.3,288.7 416.7,240.6 333.3,192.5 "/>
    <polygon class="st3" points="333.3,192.5 250,240.6 333.3,288.7 "/>
    <polygon class="st1" points="250,336.8 250,433 333.3,384.9 "/>
    <polygon class="st1" points="416.7,433 416.7,336.8 333.3,384.9 "/>
    <polygon class="st1" points="333.3,288.7 250,336.8 333.3,384.9 "/>
    <polygon class="st3" points="333.3,384.9 416.7,336.8 333.3,288.7 "/>
    <polygon class="st0" points="416.7,529.2 416.7,433 333.3,481.1 "/>
    <polygon class="st1" points="250,433 250,529.2 333.3,481.1 "/>
    <polygon class="st1" points="333.3,384.9 250,433 333.3,481.1 "/>
    <polygon class="st4" points="333.3,481.1 416.7,433 333.3,384.9 "/>
    <polygon class="st1" points="333.3,577.3 416.7,529.2 333.3,481.1 "/>
    <polygon class="st2" points="333.3,481.1 250,529.2 333.3,577.3 "/>
    <polygon class="st1" points="166.7,577.3 250,577.3 250,529.2 166.7,577.3 "/>
    <polygon class="st1" points="250,529.2 250,577.3 333.3,577.3 333.3,577.3 "/>
    <polygon class="st1" points="416.7,48.1 416.7,0 333.3,0 "/>
    <polygon class="st0" points="416.7,0 416.7,48.1 500,0 "/>
    <polygon class="st4" points="416.7,48.1 416.7,144.3 500,96.2 "/>
    <polygon class="st1" points="583.3,144.3 583.3,48.1 500,96.2 "/>
    <polygon class="st4" points="583.3,48.1 500,0 500,96.2 "/>
    <polygon class="st3" points="500,96.2 500,0 416.7,48.1 "/>
    <polygon class="st0" points="416.7,144.3 416.7,240.6 500,192.5 "/>
    <polygon class="st4" points="583.3,240.6 583.3,144.3 500,192.5 "/>
    <polygon class="st2" points="500,192.5 583.3,144.3 500,96.2 "/>
    <polygon class="st3" points="500,96.2 416.7,144.3 500,192.5 "/>
    <polygon class="st4" points="583.3,336.8 583.3,240.6 500,288.7 "/>
    <polygon class="st4" points="416.7,240.6 416.7,336.8 500,288.7 "/>
    <polygon class="st0" points="500,192.5 416.7,240.6 500,288.7 "/>
    <polygon class="st4" points="500,288.7 583.3,240.6 500,192.5 "/>
    <polygon class="st4" points="416.7,336.8 416.7,433 500,384.9 "/>
    <polygon class="st0" points="583.3,433 583.3,336.8 500,384.9 "/>
    <polygon class="st4" points="500,384.9 583.3,336.8 500,288.7 "/>
    <polygon class="st2" points="500,288.7 416.7,336.8 500,384.9 "/>
    <polygon class="st4" points="583.3,529.2 583.3,433 500,481.1 "/>
    <polygon class="st3" points="416.7,433 416.7,529.2 500,481.1 "/>
    <polygon class="st3" points="500,481.1 583.3,433 500,384.9 "/>
    <polygon class="st1" points="500,384.9 416.7,433 500,481.1 "/>
    <polygon class="st0" points="500,577.3 583.3,529.2 500,481.1 "/>
    <polygon class="st4" points="500,481.1 416.7,529.2 500,577.3 "/>
    <polygon class="st1" points="333.3,577.3 416.7,577.3 416.7,529.2 333.3,577.3 "/>
    <polygon class="st0" points="416.7,529.2 416.7,577.3 500,577.3 500,577.3 "/>
    <polygon class="st1" points="583.3,48.1 583.3,0 500,0 "/>
    <polygon class="st2" points="583.3,0 583.3,48.1 666.7,0 "/>
    <polygon class="st4" points="750,144.3 750,48.1 666.7,96.2 "/>
    <polygon class="st0" points="583.3,48.1 583.3,144.3 666.7,96.2 "/>
    <polygon class="st3" points="666.7,96.2 666.7,0 583.3,48.1 "/>
    <polygon class="st4" points="750,48.1 666.7,0 666.7,96.2 "/>
    <polygon class="st3" points="583.3,144.3 583.3,240.6 666.7,192.5 "/>
    <polygon class="st1" points="750,240.6 750,144.3 666.7,192.5 "/>
    <polygon class="st2" points="666.7,192.5 750,144.3 666.7,96.2 "/>
    <polygon class="st3" points="666.7,96.2 583.3,144.3 666.7,192.5 "/>
    <polygon class="st3" points="583.3,240.6 583.3,336.8 666.7,288.7 "/>
    <polygon class="st4" points="750,336.8 750,240.6 666.7,288.7 "/>
    <polygon class="st2" points="666.7,288.7 750,240.6 666.7,192.5 "/>
    <polygon class="st4" points="666.7,192.5 583.3,240.6 666.7,288.7 "/>
    <polygon class="st4" points="750,433 750,336.8 666.7,384.9 "/>
    <polygon class="st1" points="583.3,336.8 583.3,433 666.7,384.9 "/>
    <polygon class="st3" points="666.7,384.9 750,336.8 666.7,288.7 "/>
    <polygon class="st2" points="666.7,288.7 583.3,336.8 666.7,384.9 "/>
    <polygon class="st3" points="583.3,433 583.3,529.2 666.7,481.1 "/>
    <polygon class="st1" points="750,529.2 750,433 666.7,481.1 "/>
    <polygon class="st1" points="666.7,481.1 750,433 666.7,384.9 "/>
    <polygon class="st2" points="666.7,384.9 583.3,433 666.7,481.1 "/>
    <polygon class="st4" points="666.7,577.3 750,529.2 666.7,481.1 "/>
    <polygon class="st2" points="666.7,481.1 583.3,529.2 666.7,577.3 "/>
    <polygon class="st1" points="500,577.3 583.3,577.3 583.3,529.2 500,577.3 "/>
    <polygon class="st2" points="583.3,529.2 583.3,577.3 666.7,577.3 666.7,577.3 "/>
    <polygon class="st3" points="750,48.1 750,0 666.7,0 "/>
    <polygon class="st3" points="750,0 750,48.1 833.3,0 "/>
    <polygon class="st4" points="750,48.1 750,144.3 833.3,96.2 "/>
    <polygon class="st1" points="916.6,144.3 916.6,48.1 833.3,96.2 "/>
    <polygon class="st4" points="833.3,96.2 833.3,0 750,48.1 "/>
    <polygon class="st3" points="916.6,48.1 833.3,0 833.3,96.2 "/>
    <polygon class="st3" points="750,144.3 750,240.6 833.3,192.5 "/>
    <polygon class="st1" points="916.6,240.6 916.6,144.3 833.3,192.5 "/>
    <polygon class="st2" points="833.3,96.2 750,144.3 833.3,192.5 "/>
    <polygon class="st4" points="833.3,192.5 916.6,144.3 833.3,96.2 "/>
    <polygon class="st3" points="916.6,336.8 916.6,240.6 833.3,288.7 "/>
    <polygon class="st4" points="750,240.6 750,336.8 833.3,288.7 "/>
    <polygon class="st4" points="833.3,288.7 916.6,240.6 833.3,192.5 "/>
    <polygon class="st0" points="833.3,192.5 750,240.6 833.3,288.7 "/>
    <polygon class="st4" points="916.6,433 916.6,336.8 833.3,384.9 "/>
    <polygon class="st3" points="750,336.8 750,433 833.3,384.9 "/>
    <polygon class="st1" points="833.3,288.7 750,336.8 833.3,384.9 "/>
    <polygon class="st2" points="833.3,384.9 916.6,336.8 833.3,288.7 "/>
    <polygon class="st1" points="750,433 750,529.2 833.3,481.1 "/>
    <polygon class="st3" points="916.6,529.2 916.6,433 833.3,481.1 "/>
    <polygon class="st2" points="833.3,384.9 750,433 833.3,481.1 "/>
    <polygon class="st4" points="833.3,481.1 916.6,433 833.3,384.9 "/>
    <polygon class="st0" points="833.3,577.3 916.6,529.2 833.3,481.1 "/>
    <polygon class="st1" points="833.3,481.1 750,529.2 833.3,577.3 "/>
    <polygon class="st4" points="833.3,577.3 833.3,577.3 916.6,577.3 916.6,529.2 "/>
    <polygon class="st3" points="666.7,577.3 750,577.3 750,529.2 666.7,577.3 "/>
    <polygon class="st3" points="750,529.2 750,577.3 833.3,577.3 833.3,577.3 "/>
    <polygon class="st4" points="916.6,48.1 916.6,0 833.3,0 "/>
    <polygon class="st1" points="916.7,0 916.7,48.1 1000,0 "/>
    <polygon class="st3" points="1000,0 1000,0 1000,0 "/>
    <polygon class="st0" points="1000,96.2 1000,96.2 1000,96.2 "/>
    <polygon class="st3" points="916.7,48.1 916.7,144.3 1000,96.2 "/>
    <polygon class="st2" points="1000,96.2 1000,0 916.7,48.1 "/>
    <rect x="1000" y="0" class="st4" width="0" height="96.2"/>
    <polygon class="st4" points="1000,192.5 1000,192.5 1000,192.5 "/>
    <polygon class="st4" points="916.7,144.3 916.7,240.6 1000,192.5 "/>
    <polygon class="st0" points="1000,96.2 916.7,144.3 1000,192.5 "/>
    <polygon class="st3" points="1000,288.7 1000,288.7 1000,288.7 "/>
    <polygon class="st0" points="916.7,240.6 916.7,336.8 1000,288.7 "/>
    <polygon class="st1" points="1000,192.5 916.7,240.6 1000,288.7 "/>
    <polygon class="st0" points="1000,384.9 1000,384.9 1000,384.9 "/>
    <polygon class="st2" points="916.7,336.8 916.7,433 1000,384.9 "/>
    <polygon class="st4" points="1000,288.7 916.7,336.8 1000,384.9 "/>
    <polygon class="st3" points="1000,481.1 1000,481.1 1000,481.1 "/>
    <polygon class="st1" points="916.7,433 916.7,529.2 1000,481.1 "/>
    <polygon class="st4" points="1000,384.9 916.7,433 1000,481.1 "/>
    <polygon class="st4" points="1000,577.3 1000,577.3 1000,577.3 "/>
    <polygon class="st3" points="916.7,529.2 1000,577.3 1000,481.1 "/>
    <polygon class="st1" points="916.7,529.2 916.7,577.3 1000,577.3 1000,577.3 "/>
    <polygon class="st0" points="1000,577.3 1000,577.3 1000,577.3 "/>
    <rect x="1000" y="481.1" class="st2" width="0" height="96.2"/>
    <polygon class="st0" points="0,577.3 0,577.3 0,577.3 "/>
    <polygon class="st3" points="166.7,577.3 166.7,577.3 166.7,577.3 "/>
    <polygon class="st3" points="166.7,577.4 166.7,577.4 166.7,577.4 "/>
    <polygon class="st1" points="166.7,577.3 166.7,577.3 166.7,577.3 "/>
    <polygon class="st2" points="166.7,577.3 166.7,577.3 166.7,577.3 "/>
    <polygon class="st4" points="166.7,577.3 166.7,577.3 166.7,577.3 "/>
    <polygon class="st2" points="166.7,577.3 166.7,577.3 166.7,577.3 "/>
    <polygon class="st0" points="333.3,577.3 333.3,577.3 333.3,577.3 "/>
    <polygon class="st0" points="333.3,577.3 333.3,577.3 333.3,577.3 "/>
    <polygon class="st4" points="333.3,577.4 333.3,577.4 333.3,577.4 "/>
    <polygon class="st4" points="333.3,577.3 333.3,577.3 333.3,577.3 "/>
    <polygon class="st0" points="333.3,577.3 333.3,577.3 333.3,577.3 "/>
    <polygon class="st3" points="333.3,577.3 333.3,577.3 333.3,577.3 "/>
    <polygon class="st2" points="500,577.3 500,577.3 500,577.3 "/>
    <polygon class="st4" points="500,577.4 500,577.4 500,577.4 "/>
    <polygon class="st1" points="500,577.3 500,577.3 500,577.3 "/>
    <polygon class="st3" points="500,577.3 500,577.3 500,577.3 "/>
    <polygon class="st1" points="500,577.3 500,577.3 500,577.3 "/>
    <polygon class="st3" points="500,577.3 500,577.3 500,577.3 "/>
    <polygon class="st4" points="666.6,577.4 666.6,577.4 666.6,577.4 "/>
    <polygon class="st3" points="666.7,577.3 666.7,577.3 666.7,577.3 "/>
    <polygon class="st0" points="666.7,577.3 666.7,577.3 666.7,577.3 "/>
    <polygon class="st4" points="666.7,577.3 666.7,577.3 666.7,577.3 "/>
    <polygon class="st4" points="666.7,577.3 666.7,577.3 666.7,577.3 "/>
    <polygon class="st1" points="666.7,577.3 666.7,577.3 666.7,577.3 "/>
    <polygon class="st1" points="833.3,577.4 833.3,577.4 833.3,577.4 "/>
    <polygon class="st0" points="833.3,577.3 833.3,577.3 833.3,577.3 "/>
    <polygon class="st2" points="833.3,577.3 833.3,577.3 833.3,577.3 "/>
    <polygon class="st4" points="833.3,577.3 833.3,577.3 833.3,577.3 "/>
    <polygon class="st3" points="833.3,577.3 833.3,577.3 833.3,577.3 "/>
    <polygon class="st2" points="833.3,577.3 833.3,577.3 833.3,577.3 "/>
    <polygon class="st4" points="1000,577.3 1000,577.3 1000,577.3 1000,577.3 1000,577.3 "/>
    <polygon class="st1" points="1000,577.3 1000,577.3 1000,577.3 "/>
    <polygon class="st1" points="1000,577.3 1000,577.3 1000,577.3 "/>
    <polygon class="st4" points="1000,577.4 1000,577.4 1000,577.4 "/>
</svg>
